<svg width="106" height="59" viewBox="0 0 106 59" fill="none" xmlns="http://www.w3.org/2000/svg">
<path d="M60.1829 5.32019C52.2641 5.28968 44.9606 5.61011 38.2876 6.29166C38.7769 5.38123 39.2762 4.45554 39.7907 3.5146L34.4846 0.584961C33.2438 2.86866 32.0534 5.08623 30.9085 7.22751C22.8081 8.47871 15.8123 10.3403 9.97654 12.802C2.58227 15.9198 -0.479336 18.7884 0.0603543 22.1046C0.559694 25.197 3.53051 25.8277 6.15331 26.3872C8.24146 26.8347 10.8441 27.3841 13.3862 28.9099C15.0052 29.8814 16.5739 31.2394 17.9307 32.8212C16.1704 36.5799 14.7278 39.8605 13.6081 42.6528C10.4305 50.5923 9.12918 55.9735 12.448 58.2521C13.018 58.6437 13.8452 58.9998 14.98 58.9998C15.7114 58.9998 16.5638 58.8523 17.5574 58.4657C21.5824 56.8992 26.5456 51.9401 27.8721 46.3657C28.785 42.5409 28.0839 38.5279 26.3993 34.8607C24.0236 36.6104 22.1322 39.0416 21.7186 39.5909C22.2482 41.4117 22.3894 43.2428 21.9859 44.9416C21.2394 48.0746 18.6923 50.6838 16.8009 51.9961C17.28 49.9413 18.546 46.1724 21.6379 39.2908L26.1622 29.7135C28.4622 25.0292 31.3019 19.4598 34.8074 12.8325C42.3075 11.8509 50.7711 11.3829 60.1728 11.4236H60.188L60.2031 5.32019H60.1829ZM20.7401 26.9619C19.4035 25.6751 17.9609 24.5561 16.473 23.666C13.3458 21.7892 10.3246 21.0467 7.99936 20.5431C8.99299 19.9582 10.3901 19.2411 12.3068 18.4324C16.6041 16.6166 21.6127 15.1569 27.3072 14.043C24.8508 18.7477 22.6618 23.0557 20.7401 26.9619Z" fill="#1F1D1A"/>
<path d="M33.2833 51.4997C33.2833 51.1115 33.378 50.7576 33.5674 50.438C33.7568 50.1184 34.0113 49.8639 34.3309 49.6745C34.6505 49.4851 35.0044 49.3904 35.3927 49.3904C35.7289 49.3904 36.039 49.4626 36.3231 49.607C36.6095 49.7514 36.8463 49.9491 37.0333 50.2C37.2203 50.4486 37.3363 50.7303 37.3813 51.0452H36.5219C36.4746 50.8014 36.3432 50.6025 36.1278 50.4486C35.9123 50.2924 35.6673 50.2142 35.3927 50.2142C35.1559 50.2142 34.9405 50.2722 34.7464 50.3882C34.5523 50.5042 34.3972 50.6593 34.2812 50.8534C34.1652 51.0476 34.1072 51.263 34.1072 51.4997C34.1072 51.7365 34.1652 51.9519 34.2812 52.146C34.3972 52.3402 34.5523 52.4952 34.7464 52.6112C34.9405 52.7273 35.1559 52.7853 35.3927 52.7853C35.6673 52.7853 35.8993 52.7083 36.0887 52.5544C36.2805 52.3982 36.4012 52.1981 36.4509 51.9543H37.3103C37.2653 52.2691 37.1552 52.5521 36.98 52.803C36.8048 53.0516 36.5799 53.2481 36.3053 53.3925C36.0331 53.5369 35.7289 53.6091 35.3927 53.6091C35.0044 53.6091 34.6505 53.5144 34.3309 53.325C34.0113 53.1356 33.7568 52.8811 33.5674 52.5615C33.378 52.2419 33.2833 51.888 33.2833 51.4997ZM35.3572 55.2497C34.8411 55.2497 34.3558 55.1527 33.9012 54.9585C33.449 54.7644 33.0501 54.4957 32.7045 54.1524C32.3612 53.8068 32.0913 53.4079 31.8949 52.9557C31.7007 52.5035 31.6048 52.0182 31.6072 51.4997C31.6096 50.9813 31.7078 50.496 31.902 50.0438C32.0985 49.5916 32.3683 49.1939 32.7116 48.8506C33.0549 48.5049 33.4526 48.2351 33.9048 48.0409C34.3569 47.8468 34.8411 47.7497 35.3572 47.7497C35.8756 47.7497 36.3609 47.8468 36.8131 48.0409C37.2677 48.2351 37.6654 48.5049 38.0063 48.8506C38.3496 49.1939 38.6183 49.5916 38.8124 50.0438C39.0065 50.496 39.1048 50.9813 39.1071 51.4997C39.1095 52.0182 39.0136 52.5035 38.8195 52.9557C38.6254 53.4079 38.3567 53.8068 38.0134 54.1524C37.6701 54.4957 37.2712 54.7644 36.8167 54.9585C36.3621 55.1527 35.8756 55.2497 35.3572 55.2497ZM35.3572 54.4259C35.762 54.4259 36.142 54.3501 36.4971 54.1986C36.8522 54.0471 37.1635 53.8376 37.431 53.5701C37.6985 53.3025 37.908 52.9924 38.0596 52.6397C38.2111 52.2845 38.2856 51.9058 38.2833 51.5033C38.2809 51.0985 38.204 50.7185 38.0524 50.3634C37.9009 50.0083 37.6914 49.697 37.4239 49.4294C37.1564 49.1619 36.8463 48.9524 36.4935 48.8009C36.1408 48.6494 35.762 48.5736 35.3572 48.5736C34.9547 48.5736 34.5771 48.6494 34.2244 48.8009C33.8716 48.9524 33.5615 49.1631 33.294 49.433C33.0265 49.7005 32.8158 50.0118 32.6619 50.3669C32.5104 50.7197 32.4334 51.0985 32.4311 51.5033C32.4287 51.9034 32.5033 52.281 32.6548 52.6361C32.8063 52.9889 33.0158 53.299 33.2833 53.5665C33.5532 53.834 33.8645 54.0447 34.2173 54.1986C34.5724 54.3501 34.9523 54.4259 35.3572 54.4259Z" fill="#1F1D1A"/>
<path d="M43.679 47.977L45.8381 54.0992H45.9233L48.0824 47.977H49.0057L46.3352 55.2498H45.4261L42.7557 47.977H43.679Z" fill="#1F1D1A"/>
<path d="M51.533 55.3634C51.0405 55.3634 50.6085 55.2462 50.2368 55.0118C49.8675 54.7775 49.5786 54.4496 49.3703 54.0282C49.1643 53.6068 49.0614 53.1143 49.0614 52.5509C49.0614 51.9827 49.1643 51.4867 49.3703 51.063C49.5786 50.6392 49.8675 50.3101 50.2368 50.0758C50.6085 49.8414 51.0405 49.7242 51.533 49.7242C52.0254 49.7242 52.4563 49.8414 52.8256 50.0758C53.1973 50.3101 53.4861 50.6392 53.692 51.063C53.9004 51.4867 54.0045 51.9827 54.0045 52.5509C54.0045 53.1143 53.9004 53.6068 53.692 54.0282C53.4861 54.4496 53.1973 54.7775 52.8256 55.0118C52.4563 55.2462 52.0254 55.3634 51.533 55.3634ZM51.533 54.6106C51.907 54.6106 52.2148 54.5147 52.4563 54.3229C52.6977 54.1312 52.8765 53.879 52.9925 53.5665C53.1085 53.254 53.1665 52.9155 53.1665 52.5509C53.1665 52.1863 53.1085 51.8466 52.9925 51.5317C52.8765 51.2169 52.6977 50.9624 52.4563 50.7682C52.2148 50.5741 51.907 50.477 51.533 50.477C51.1589 50.477 50.8511 50.5741 50.6097 50.7682C50.3682 50.9624 50.1894 51.2169 50.0734 51.5317C49.9574 51.8466 49.8994 52.1863 49.8994 52.5509C49.8994 52.9155 49.9574 53.254 50.0734 53.5665C50.1894 53.879 50.3682 54.1312 50.6097 54.3229C50.8511 54.5147 51.1589 54.6106 51.533 54.6106Z" fill="#1F1D1A"/>
<path d="M59.3488 49.7952L57.3317 55.2498H56.4794L54.4624 49.7952H55.3715L56.8772 54.1418H56.934L58.4397 49.7952H59.3488Z" fill="#1F1D1A"/>
<path d="M61.694 55.3776C61.3484 55.3776 61.0347 55.3125 60.753 55.1823C60.4713 55.0497 60.2475 54.8591 60.0818 54.6106C59.9161 54.3596 59.8332 54.0566 59.8332 53.7015C59.8332 53.389 59.8948 53.1357 60.0179 52.9415C60.141 52.745 60.3055 52.5911 60.5115 52.4799C60.7175 52.3686 60.9447 52.2858 61.1933 52.2313C61.4443 52.1745 61.6964 52.1295 61.9497 52.0964C62.2812 52.0537 62.5499 52.0218 62.7558 52.0005C62.9642 51.9768 63.1157 51.9377 63.2104 51.8833C63.3074 51.8288 63.356 51.7341 63.356 51.5992V51.5708C63.356 51.2204 63.2601 50.9482 63.0683 50.754C62.8789 50.5599 62.5913 50.4628 62.2054 50.4628C61.8053 50.4628 61.4916 50.5504 61.2644 50.7256C61.0371 50.9008 60.8773 51.0878 60.7849 51.2867L59.9895 51.0026C60.1315 50.6712 60.3209 50.4131 60.5577 50.2285C60.7968 50.0414 61.0572 49.9112 61.3389 49.8378C61.623 49.7621 61.9024 49.7242 62.177 49.7242C62.3522 49.7242 62.5534 49.7455 62.7807 49.7881C63.0103 49.8284 63.2317 49.9124 63.4447 50.0402C63.6602 50.1681 63.8389 50.361 63.981 50.6191C64.123 50.8771 64.194 51.2228 64.194 51.656V55.2498H63.356V54.5111H63.3134C63.2565 54.6295 63.1618 54.7562 63.0293 54.8911C62.8967 55.026 62.7203 55.1409 62.5001 55.2356C62.28 55.3303 62.0113 55.3776 61.694 55.3776ZM61.8219 54.6248C62.1533 54.6248 62.4327 54.5597 62.6599 54.4295C62.8896 54.2992 63.0624 54.1312 63.1784 53.9252C63.2968 53.7192 63.356 53.5026 63.356 53.2753V52.5083C63.3205 52.5509 63.2423 52.59 63.1216 52.6255C63.0032 52.6586 62.8659 52.6882 62.7097 52.7143C62.5558 52.7379 62.4055 52.7592 62.2587 52.7782C62.1143 52.7947 61.9971 52.809 61.9071 52.8208C61.6893 52.8492 61.4857 52.8954 61.2963 52.9593C61.1093 53.0208 60.9578 53.1143 60.8418 53.2398C60.7281 53.3629 60.6713 53.531 60.6713 53.7441C60.6713 54.0353 60.779 54.2554 60.9945 54.4046C61.2123 54.5514 61.4881 54.6248 61.8219 54.6248Z" fill="#1F1D1A"/>
<path d="M67.8521 48.7583V47.977H73.3066V48.7583H71.0197V55.2498H70.139V48.7583H67.8521Z" fill="#1F1D1A"/>
<path d="M77.4736 51.0168L76.7208 51.2299C76.6735 51.1044 76.6036 50.9825 76.5113 50.8641C76.4213 50.7434 76.2982 50.6439 76.142 50.5658C75.9857 50.4877 75.7857 50.4486 75.5418 50.4486C75.208 50.4486 74.9299 50.5256 74.7073 50.6795C74.4871 50.831 74.3771 51.0239 74.3771 51.2583C74.3771 51.4666 74.4528 51.6312 74.6043 51.7519C74.7558 51.8726 74.9926 51.9732 75.3146 52.0537L76.1242 52.2526C76.6119 52.371 76.9753 52.5521 77.2144 52.7959C77.4535 53.0374 77.5731 53.3487 77.5731 53.7299C77.5731 54.0424 77.4831 54.3217 77.3032 54.5679C77.1256 54.8142 76.8771 55.0083 76.5575 55.1503C76.2379 55.2924 75.8662 55.3634 75.4424 55.3634C74.8861 55.3634 74.4256 55.2427 74.061 55.0012C73.6964 54.7597 73.4656 54.407 73.3685 53.9429L74.164 53.7441C74.2398 54.0376 74.383 54.2578 74.5937 54.4046C74.8067 54.5514 75.0849 54.6248 75.4282 54.6248C75.8188 54.6248 76.129 54.5419 76.3586 54.3762C76.5906 54.2081 76.7066 54.0069 76.7066 53.7725C76.7066 53.5831 76.6403 53.4245 76.5077 53.2966C76.3752 53.1664 76.1716 53.0694 75.8969 53.0054L74.9879 52.7924C74.4883 52.674 74.1214 52.4905 73.887 52.242C73.655 51.991 73.539 51.6773 73.539 51.3009C73.539 50.9931 73.6254 50.7209 73.7982 50.4841C73.9734 50.2474 74.2113 50.0616 74.512 49.9266C74.815 49.7917 75.1583 49.7242 75.5418 49.7242C76.0816 49.7242 76.5054 49.8426 76.8131 50.0793C77.1233 50.3161 77.3434 50.6286 77.4736 51.0168Z" fill="#1F1D1A"/>
<path d="M82.0721 53.0196V49.7952H82.9102V55.2498H82.0721V54.3265H82.0153C81.8875 54.6035 81.6886 54.839 81.4187 55.0331C81.1488 55.2249 80.8079 55.3208 80.396 55.3208C80.0551 55.3208 79.752 55.2462 79.4869 55.0971C79.2217 54.9455 79.0134 54.7183 78.8619 54.4152C78.7104 54.1098 78.6346 53.7251 78.6346 53.2611V49.7952H79.4727V53.2043C79.4727 53.602 79.584 53.9193 79.8065 54.156C80.0314 54.3928 80.3179 54.5111 80.6659 54.5111C80.8742 54.5111 81.0861 54.4579 81.3015 54.3513C81.5193 54.2448 81.7016 54.0814 81.8484 53.8613C81.9976 53.6411 82.0721 53.3606 82.0721 53.0196Z" fill="#1F1D1A"/>
<path d="M84.2452 55.2498V49.7952H85.0548V50.6191H85.1116C85.2111 50.3492 85.391 50.1302 85.6514 49.9621C85.9118 49.794 86.2054 49.71 86.5321 49.71C86.5937 49.71 86.6706 49.7112 86.7629 49.7135C86.8553 49.7159 86.9251 49.7195 86.9725 49.7242V50.5765C86.944 50.5694 86.8789 50.5587 86.7771 50.5445C86.6777 50.5279 86.5723 50.5196 86.4611 50.5196C86.1959 50.5196 85.9592 50.5753 85.7509 50.6866C85.5449 50.7955 85.3815 50.947 85.2608 51.1411C85.1424 51.3329 85.0832 51.5518 85.0832 51.7981V55.2498H84.2452Z" fill="#1F1D1A"/>
<path d="M88.5471 53.2611L88.5329 52.2242H88.7034L91.0897 49.7952H92.1267L89.5841 52.3662H89.513L88.5471 53.2611ZM87.7659 55.2498V47.977H88.6039V55.2498H87.7659ZM91.2318 55.2498L89.1011 52.5509L89.6977 51.9685L92.2971 55.2498H91.2318Z" fill="#1F1D1A"/>
<path d="M94.6104 55.3776C94.2648 55.3776 93.9511 55.3125 93.6694 55.1823C93.3877 55.0497 93.1639 54.8591 92.9982 54.6106C92.8325 54.3596 92.7496 54.0566 92.7496 53.7015C92.7496 53.389 92.8112 53.1357 92.9343 52.9415C93.0574 52.745 93.222 52.5911 93.4279 52.4799C93.6339 52.3686 93.8612 52.2858 94.1097 52.2313C94.3607 52.1745 94.6128 52.1295 94.8661 52.0964C95.1976 52.0537 95.4663 52.0218 95.6722 52.0005C95.8806 51.9768 96.0321 51.9377 96.1268 51.8833C96.2238 51.8288 96.2724 51.7341 96.2724 51.5992V51.5708C96.2724 51.2204 96.1765 50.9482 95.9847 50.754C95.7953 50.5599 95.5077 50.4628 95.1218 50.4628C94.7217 50.4628 94.408 50.5504 94.1808 50.7256C93.9535 50.9008 93.7937 51.0878 93.7014 51.2867L92.9059 51.0026C93.0479 50.6712 93.2373 50.4131 93.4741 50.2285C93.7132 50.0414 93.9736 49.9112 94.2553 49.8378C94.5394 49.7621 94.8188 49.7242 95.0934 49.7242C95.2686 49.7242 95.4698 49.7455 95.6971 49.7881C95.9267 49.8284 96.1481 49.9124 96.3612 50.0402C96.5766 50.1681 96.7553 50.361 96.8974 50.6191C97.0394 50.8771 97.1104 51.2228 97.1104 51.656V55.2498H96.2724V54.5111H96.2298C96.1729 54.6295 96.0782 54.7562 95.9457 54.8911C95.8131 55.026 95.6367 55.1409 95.4165 55.2356C95.1964 55.3303 94.9277 55.3776 94.6104 55.3776ZM94.7383 54.6248C95.0697 54.6248 95.3491 54.5597 95.5764 54.4295C95.806 54.2992 95.9788 54.1312 96.0948 53.9252C96.2132 53.7192 96.2724 53.5026 96.2724 53.2753V52.5083C96.2369 52.5509 96.1587 52.59 96.038 52.6255C95.9196 52.6586 95.7823 52.6882 95.6261 52.7143C95.4722 52.7379 95.3219 52.7592 95.1751 52.7782C95.0307 52.7947 94.9135 52.809 94.8235 52.8208C94.6057 52.8492 94.4021 52.8954 94.2127 52.9593C94.0257 53.0208 93.8742 53.1143 93.7582 53.2398C93.6445 53.3629 93.5877 53.531 93.5877 53.7441C93.5877 54.0353 93.6954 54.2554 93.9109 54.4046C94.1287 54.5514 94.4045 54.6248 94.7383 54.6248Z" fill="#1F1D1A"/>
<path d="M99.2782 51.9685V55.2498H98.4401V49.7952H99.2498V50.6475H99.3208C99.4486 50.3705 99.6428 50.148 99.9032 49.9799C100.164 49.8094 100.5 49.7242 100.912 49.7242C101.281 49.7242 101.604 49.8 101.881 49.9515C102.158 50.1006 102.374 50.3279 102.527 50.6333C102.681 50.9363 102.758 51.3198 102.758 51.7839V55.2498H101.92V51.8407C101.92 51.4122 101.809 51.0784 101.586 50.8393C101.364 50.5978 101.058 50.477 100.67 50.477C100.403 50.477 100.164 50.535 99.9529 50.651C99.7445 50.767 99.58 50.9363 99.4593 51.1589C99.3385 51.3814 99.2782 51.6513 99.2782 51.9685Z" fill="#1F1D1A"/>
<path d="M104.701 55.3066C104.525 55.3066 104.375 55.2438 104.25 55.1184C104.124 54.9929 104.061 54.8426 104.061 54.6674C104.061 54.4922 104.124 54.3419 104.25 54.2164C104.375 54.0909 104.525 54.0282 104.701 54.0282C104.876 54.0282 105.026 54.0909 105.151 54.2164C105.277 54.3419 105.34 54.4922 105.34 54.6674C105.34 54.7834 105.31 54.8899 105.251 54.987C105.194 55.084 105.117 55.1622 105.02 55.2214C104.925 55.2782 104.819 55.3066 104.701 55.3066Z" fill="#1F1D1A"/>
</svg>
